<?xml version="1.0" encoding="utf-8"?>
<!-- Generator: Adobe Illustrator 19.1.1, SVG Export Plug-In . SVG Version: 6.00 Build 0)  -->
<svg version="1.1" id="Ebene_1" xmlns="http://www.w3.org/2000/svg" xmlns:xlink="http://www.w3.org/1999/xlink" x="0px" y="0px"
	 viewBox="0 0 283.5 283.5" style="enable-background:new 0 0 283.5 283.5;" xml:space="preserve">
<style type="text/css">
	.st0{fill-rule:evenodd;clip-rule:evenodd;fill:none;stroke:#C5C7C8;stroke-width:23.3021;stroke-miterlimit:10;}
	.st1{fill-rule:evenodd;clip-rule:evenodd;fill:#03477C;}
	.st2{fill-rule:evenodd;clip-rule:evenodd;fill:#C5C7C8;}
</style>
<path class="st0" d="M252.5,142c0-61.1-49.5-110.7-110.7-110.7C80.7,31.3,31.1,80.9,31.1,142c0,61.1,49.6,110.7,110.7,110.7
	C202.9,252.7,252.5,203.1,252.5,142z"/>
<g>
	<g>
		<path class="st1" d="M104.8,213.8c0,3.3,0.5,3.8,3.8,3.8h20c3.1,0,3.5-0.4,3.5-3.8V115c0-3.3-0.4-3.8-3.5-3.8H88.4
			c-3.1,0-3.6,0.4-3.6,3.8v12.4c0,3.3,0.4,3.8,3.6,3.8h16.4V213.8z"/>
		<path class="st1" d="M117.9,62.2c-9.8,0-17.5,7.8-17.5,17.3c0,9.8,7.7,17.5,17.3,17.5c9.7,0,17.5-7.8,17.5-17.5
			C135.1,70,127.4,62.2,117.9,62.2z"/>
	</g>
	<path class="st2" d="M180.5,213.8c0,3.3-0.4,3.8-3.8,3.8h-19.9c-3.1,0-3.5-0.4-3.5-3.8V115c0-3.3,0.4-3.8,3.5-3.8h40.1
		c3.1,0,3.6,0.4,3.6,3.8v12.4c0,3.3-0.5,3.8-3.6,3.8h-16.4V213.8z"/>
	<path class="st2" d="M167.5,62.2c9.7,0,17.5,7.8,17.5,17.3c0,9.8-7.8,17.5-17.3,17.5c-9.7,0-17.5-7.8-17.5-17.5
		C150.2,70,158,62.2,167.5,62.2z"/>
</g>
</svg>
